<svg width="952px" height="398px" viewBox="0 0 952 398" version="1.1" xmlns="http://www.w3.org/2000/svg" xmlns:xlink="http://www.w3.org/1999/xlink">
    <g id="Page-1" stroke="none" stroke-width="1" fill="none" fill-rule="evenodd">
        <g id="Group">
            <rect id="Rectangle" x="0" y="0" width="952" height="398"></rect>
            <text id="GraphQL-codegen" font-family="Inter-Regular_Black, Inter" font-size="92" font-weight="800" fill="#CD008A">
                <tspan x="272" y="227">GraphQL</tspan>
                <tspan x="272" y="338">codegen</tspan>
            </text>
            <g id="Logo" transform="translate(272.000000, 38.000000)">
                <path d="M50.0541,1 C54.9252515,1 58.8741,4.94884851 58.8741,9.82 C58.8741,10.6778881 58.7516191,11.5071692 58.5231899,12.2913106 L78.9105402,24.0620129 C80.5161905,22.3843636 82.7777364,21.3396 85.2833,21.3396 C90.1544515,21.3396 94.1033,25.2884485 94.1033,30.1596 C94.1033,34.3089929 91.2379589,37.7891496 87.3779847,38.729362 L87.3779847,62.268938 C91.2379589,63.2091504 94.1033,66.6893071 94.1033,70.8387 C94.1033,75.7098515 90.1544515,79.6587 85.2833,79.6587 C82.7773319,79.6587 80.5154602,78.613599 78.9097625,76.9354744 L58.5229391,88.7060286 C58.7515294,89.4904239 58.8741,90.319998 58.8741,91.1782 C58.8741,96.0493515 54.9252515,99.9982 50.0541,99.9982 C45.1829485,99.9982 41.2341,96.0493515 41.2341,91.1782 C41.2341,90.319998 41.3566706,89.4904239 41.5852609,88.7060286 L21.1954702,76.9334539 C19.5896551,78.61276 17.3269737,79.6587 14.82,79.6587 C9.94884851,79.6587 6,75.7098515 6,70.8387 C6,66.6871504 8.86832036,63.205533 12.7313347,62.267474 L12.7313347,38.730826 C8.86832036,37.792767 6,34.3111496 6,30.1596 C6,25.2884485 9.94884851,21.3396 14.82,21.3396 C17.3265634,21.3396 19.5889144,22.3851976 21.1946817,24.0640216 L41.5852996,12.2923044 C41.3566844,11.5078699 41.2341,10.6782505 41.2341,9.82 C41.2341,4.94884851 45.1829485,1 50.0541,1 Z M50.5011359,16 C31.4479307,16 16,31.445659 16,50.4988641 C16,69.5520693 31.4479307,85 50.5011359,85 C69.554341,85 85,69.5520693 85,50.4988641 C85,31.445659 69.554341,16 50.5011359,16 Z" id="Combined-Shape" fill="#E10098" fill-rule="nonzero"></path>
                <path d="M51,25 C65.358209,25 77,36.641791 77,51 C77,65.3604917 65.358209,77 51,77 C36.6395083,77 25,65.3604917 25,51 C25,47.4914838 25.6962248,44.1427568 26.9562774,41.0884987 C28.796137,43.5949078 31.7636523,45.2224759 35.1100966,45.2224759 C40.6958736,45.2224759 45.2224759,40.6958736 45.2224759,35.1123793 C45.2224759,31.7636523 43.5949078,28.796137 41.0884987,26.9562774 C44.1427568,25.6962248 47.4892011,25 51,25 Z" id="Path" fill="url(#linearGradient-1)"></path>
                <rect id="Rectangle" x="0" y="0" width="100" height="100"></rect>
            </g>
        </g>
    </g>
</svg>